<svg xmlns="http://www.w3.org/2000/svg" xmlns:xlink="http://www.w3.org/1999/xlink" width="40" zoomAndPan="magnify" viewBox="0 0 30 30.000001" height="40" preserveAspectRatio="xMidYMid meet" version="1.0"><path fill="#000000" d="M 10.46875 27.636719 C 11.605469 27.636719 12.671875 27.195312 13.472656 26.394531 C 15.011719 24.855469 15.117188 22.414062 13.792969 20.75 L 21.183594 13.359375 C 21.929688 13.957031 22.851562 14.28125 23.824219 14.28125 C 24.957031 14.28125 26.023438 13.839844 26.824219 13.039062 C 27.628906 12.238281 28.070312 11.171875 28.070312 10.039062 C 28.070312 8.90625 27.628906 7.839844 26.828125 7.039062 C 26 6.210938 24.886719 5.769531 23.71875 5.800781 C 23.753906 4.652344 23.320312 3.53125 22.476562 2.6875 C 21.675781 1.886719 20.609375 1.445312 19.476562 1.445312 C 18.339844 1.445312 17.273438 1.886719 16.472656 2.6875 C 15.671875 3.488281 15.230469 4.554688 15.230469 5.6875 C 15.230469 6.660156 15.554688 7.582031 16.152344 8.332031 L 8.765625 15.722656 C 8.015625 15.125 7.09375 14.796875 6.121094 14.796875 C 4.988281 14.796875 3.921875 15.238281 3.121094 16.042969 C 2.316406 16.84375 1.875 17.910156 1.875 19.042969 C 1.875 20.175781 2.316406 21.242188 3.121094 22.042969 C 3.945312 22.871094 5.058594 23.308594 6.226562 23.28125 C 6.195312 24.429688 6.628906 25.550781 7.46875 26.394531 C 8.273438 27.195312 9.335938 27.636719 10.472656 27.636719 Z M 21.175781 11.390625 C 20.957031 11.390625 20.75 11.476562 20.597656 11.628906 L 12.0625 20.164062 C 11.898438 20.328125 11.8125 20.554688 11.824219 20.785156 C 11.835938 21.015625 11.945312 21.230469 12.125 21.378906 C 12.191406 21.429688 12.253906 21.488281 12.3125 21.546875 C 13.332031 22.566406 13.332031 24.21875 12.3125 25.234375 C 11.820312 25.726562 11.167969 26 10.46875 26 C 9.773438 26 9.121094 25.726562 8.628906 25.234375 C 7.917969 24.527344 7.683594 23.496094 8.007812 22.542969 C 8.109375 22.25 8.035156 21.921875 7.8125 21.699219 C 7.589844 21.480469 7.265625 21.402344 6.96875 21.503906 C 6.695312 21.597656 6.40625 21.648438 6.117188 21.648438 C 5.421875 21.648438 4.769531 21.375 4.277344 20.886719 C 3.785156 20.394531 3.515625 19.738281 3.515625 19.042969 C 3.515625 18.347656 3.785156 17.691406 4.277344 17.199219 C 4.769531 16.707031 5.425781 16.4375 6.121094 16.4375 C 6.816406 16.4375 7.472656 16.707031 7.964844 17.199219 C 8.027344 17.261719 8.082031 17.324219 8.136719 17.390625 C 8.28125 17.570312 8.5 17.679688 8.730469 17.691406 C 8.960938 17.703125 9.1875 17.613281 9.347656 17.449219 L 17.882812 8.917969 C 18.046875 8.753906 18.132812 8.527344 18.121094 8.296875 C 18.113281 8.066406 18.003906 7.851562 17.824219 7.703125 C 17.757812 7.648438 17.691406 7.59375 17.632812 7.53125 C 17.140625 7.039062 16.867188 6.386719 16.867188 5.6875 C 16.867188 4.992188 17.140625 4.335938 17.632812 3.84375 C 18.125 3.351562 18.78125 3.082031 19.476562 3.082031 C 20.171875 3.082031 20.828125 3.351562 21.320312 3.84375 C 22.027344 4.554688 22.265625 5.585938 21.9375 6.535156 C 21.835938 6.832031 21.914062 7.160156 22.132812 7.382812 C 22.355469 7.601562 22.683594 7.679688 22.976562 7.578125 C 23.253906 7.480469 23.539062 7.433594 23.832031 7.433594 C 24.527344 7.433594 25.179688 7.703125 25.667969 8.195312 C 26.160156 8.6875 26.433594 9.339844 26.433594 10.039062 C 26.433594 10.734375 26.160156 11.390625 25.667969 11.882812 C 25.175781 12.375 24.523438 12.644531 23.824219 12.644531 C 23.128906 12.644531 22.476562 12.375 21.984375 11.882812 C 21.921875 11.820312 21.863281 11.753906 21.808594 11.691406 C 21.664062 11.511719 21.445312 11.402344 21.214844 11.390625 C 21.203125 11.390625 21.1875 11.390625 21.175781 11.390625 Z M 21.175781 11.390625 " fill-opacity="1" fill-rule="nonzero"/><path fill="#000000" d="M 19.527344 27.636719 C 18.394531 27.636719 17.328125 27.195312 16.523438 26.394531 C 14.984375 24.855469 14.878906 22.414062 16.203125 20.75 L 8.816406 13.359375 C 8.066406 13.957031 7.144531 14.28125 6.171875 14.28125 C 5.039062 14.28125 3.972656 13.839844 3.171875 13.039062 C 2.371094 12.238281 1.925781 11.171875 1.925781 10.039062 C 1.925781 8.90625 2.367188 7.839844 3.171875 7.039062 C 3.996094 6.210938 5.109375 5.769531 6.277344 5.800781 C 6.246094 4.652344 6.679688 3.53125 7.519531 2.6875 C 8.320312 1.886719 9.386719 1.445312 10.523438 1.445312 C 11.65625 1.445312 12.722656 1.886719 13.523438 2.6875 C 14.324219 3.488281 14.765625 4.554688 14.765625 5.6875 C 14.765625 6.660156 14.441406 7.582031 13.84375 8.332031 L 21.234375 15.722656 C 21.980469 15.125 22.902344 14.796875 23.875 14.796875 C 25.007812 14.796875 26.074219 15.238281 26.878906 16.042969 C 27.679688 16.84375 28.121094 17.910156 28.121094 19.042969 C 28.121094 20.175781 27.679688 21.242188 26.878906 22.042969 C 26.050781 22.871094 24.9375 23.308594 23.769531 23.28125 C 23.804688 24.429688 23.371094 25.550781 22.527344 26.394531 C 21.722656 27.195312 20.660156 27.636719 19.527344 27.636719 Z M 8.820312 11.390625 C 9.039062 11.390625 9.246094 11.476562 9.402344 11.628906 L 17.933594 20.164062 C 18.097656 20.328125 18.183594 20.554688 18.171875 20.785156 C 18.160156 21.015625 18.050781 21.230469 17.871094 21.378906 C 17.808594 21.429688 17.746094 21.488281 17.683594 21.546875 C 16.667969 22.566406 16.667969 24.21875 17.683594 25.234375 C 18.175781 25.726562 18.828125 26 19.527344 26 C 20.222656 26 20.875 25.726562 21.371094 25.234375 C 22.078125 24.527344 22.316406 23.496094 21.988281 22.542969 C 21.886719 22.25 21.960938 21.921875 22.183594 21.699219 C 22.40625 21.480469 22.734375 21.402344 23.027344 21.503906 C 23.304688 21.597656 23.589844 21.648438 23.882812 21.648438 C 24.574219 21.648438 25.230469 21.375 25.71875 20.886719 C 26.210938 20.394531 26.484375 19.738281 26.484375 19.042969 C 26.484375 18.347656 26.210938 17.691406 25.71875 17.199219 C 25.226562 16.707031 24.574219 16.4375 23.875 16.4375 C 23.179688 16.4375 22.523438 16.707031 22.03125 17.199219 C 21.96875 17.261719 21.914062 17.324219 21.859375 17.390625 C 21.714844 17.570312 21.5 17.679688 21.265625 17.691406 C 21.039062 17.703125 20.8125 17.613281 20.648438 17.449219 L 12.113281 8.917969 C 11.949219 8.753906 11.863281 8.527344 11.875 8.296875 C 11.886719 8.066406 11.992188 7.851562 12.171875 7.703125 C 12.238281 7.648438 12.304688 7.59375 12.367188 7.53125 C 12.855469 7.039062 13.128906 6.386719 13.128906 5.6875 C 13.128906 4.992188 12.855469 4.335938 12.363281 3.84375 C 11.871094 3.351562 11.21875 3.082031 10.519531 3.082031 C 9.824219 3.082031 9.171875 3.351562 8.675781 3.84375 C 7.96875 4.554688 7.734375 5.585938 8.058594 6.535156 C 8.160156 6.832031 8.085938 7.160156 7.863281 7.382812 C 7.640625 7.601562 7.3125 7.679688 7.019531 7.578125 C 6.746094 7.480469 6.457031 7.433594 6.167969 7.433594 C 5.472656 7.433594 4.816406 7.703125 4.328125 8.195312 C 3.835938 8.6875 3.5625 9.339844 3.5625 10.039062 C 3.5625 10.734375 3.835938 11.390625 4.328125 11.882812 C 4.820312 12.375 5.476562 12.644531 6.171875 12.644531 C 6.867188 12.644531 7.523438 12.375 8.015625 11.882812 C 8.078125 11.820312 8.132812 11.753906 8.1875 11.691406 C 8.335938 11.511719 8.550781 11.402344 8.78125 11.390625 C 8.792969 11.390625 8.808594 11.390625 8.820312 11.390625 Z M 8.820312 11.390625 " fill-opacity="1" fill-rule="nonzero"/></svg>